# xmcd CD database file
#
# Track frame offsets:
#	150
#	9880
#	20852
#	31142
#	42391
#	53607
#	64103
#	72611
#	86631
#	95891
#	107431
#	120194
#	130608
#	145383
#	157723
#	169177
#	181148
#	196804
#	211690
#	221485
#	239087
#	247680
#	268244
#	280336
#
# Disc length: 3924 seconds
#
# Revision: 0
# Processed by: cddbd v1.4PL0 Copyright (c) Steve Scherf et al.
# Submitted via: CDex 1.40Beta9
#
DISCID=4c0f5218
DTITLE=Hoyt Axton - Gold
DYEAR=2001
DGENRE=Country
TTITLE0=Never Gonna Work
TTITLE1=Bring Your Lovin'
TTITLE2=Tiger In The Closet
TTITLE3=Red, White And Blue
TTITLE4=L. A. Town
TTITLE5=Heartbreak Hotel
TTITLE6=Big Red
TTITLE7=Look Down That Lonesome Road
TTITLE8=I'll Be There
TTITLE9=Double Dare
TTITLE10=ABC (Put On)
TTITLE11=Young Man
TTITLE12=Greenback Dollar
TTITLE13=Thunder 'N Lightin'
TTITLE14=This Little Light
TTITLE15=Trombone Cholly
TTITLE16=Ox Driver's Song
TTITLE17=Gambler's Blues
TTITLE18=We'll Sing In The Sunshine
TTITLE19=Five Hundred Miles
TTITLE20=Grizzly Bear
TTITLE21=Hoochie Coochie Man
TTITLE22=They've Been On Their Jobs Too Long
TTITLE23=Voodoo Blues
EXTD=YEAR: 2001 ID3G: 2
EXTT0=
EXTT1=
EXTT2=
EXTT3=
EXTT4=
EXTT5=
EXTT6=
EXTT7=
EXTT8=
EXTT9=
EXTT10=
EXTT11=
EXTT12=
EXTT13=
EXTT14=
EXTT15=
EXTT16=
EXTT17=
EXTT18=
EXTT19=
EXTT20=
EXTT21=
EXTT22=
EXTT23=
PLAYORDER=
